<svg xmlns="http://www.w3.org/2000/svg" viewBox="0 0 32 32">
  <rect width="32" height="32" rx="6" fill="#0a0a0a"/>
  <g fill="#fafafa">
    <!-- Row 0 -->
    <circle cx="8" cy="5" r="1.5" opacity="0.9"/>
    <circle cx="12" cy="5" r="1.5" opacity="0.9"/>
    <circle cx="16" cy="5" r="1.5" opacity="1"/>
    <circle cx="20" cy="5" r="1.5" opacity="0.9"/>
    <circle cx="24" cy="5" r="1.5" opacity="0.9"/>
    <!-- Row 1 -->
    <circle cx="4" cy="9" r="1.5" opacity="0.7"/>
    <circle cx="8" cy="9" r="1.5" opacity="1"/>
    <circle cx="24" cy="9" r="1.5" opacity="1"/>
    <circle cx="28" cy="9" r="1.5" opacity="0.7"/>
    <!-- Row 2 -->
    <circle cx="4" cy="13" r="1.5" opacity="0.9"/>
    <circle cx="8" cy="13" r="1.5" opacity="0.5"/>
    <circle cx="24" cy="13" r="1.5" opacity="0.5"/>
    <circle cx="28" cy="13" r="1.5" opacity="0.9"/>
    <!-- Row 3 (center) -->
    <circle cx="4" cy="17" r="1.5" opacity="1"/>
    <circle cx="28" cy="17" r="1.5" opacity="1"/>
    <!-- Row 4 -->
    <circle cx="4" cy="21" r="1.5" opacity="0.9"/>
    <circle cx="8" cy="21" r="1.5" opacity="0.5"/>
    <circle cx="24" cy="21" r="1.5" opacity="0.5"/>
    <circle cx="28" cy="21" r="1.5" opacity="0.9"/>
    <!-- Row 5 -->
    <circle cx="4" cy="25" r="1.5" opacity="0.7"/>
    <circle cx="8" cy="25" r="1.5" opacity="1"/>
    <circle cx="24" cy="25" r="1.5" opacity="1"/>
    <circle cx="28" cy="25" r="1.5" opacity="0.7"/>
    <!-- Row 6 -->
    <circle cx="8" cy="29" r="1.5" opacity="0.9"/>
    <circle cx="12" cy="29" r="1.5" opacity="0.9"/>
    <circle cx="16" cy="29" r="1.5" opacity="1"/>
    <circle cx="20" cy="29" r="1.5" opacity="0.9"/>
    <circle cx="24" cy="29" r="1.5" opacity="0.9"/>
  </g>
</svg>
